<svg xmlns="http://www.w3.org/2000/svg" viewBox="0 0 381.13 202.07"><defs><style>.cls-1{font-size:67.83px;font-family:SofiaProSemiBold, Sofia Pro;letter-spacing:-0.07em;}.cls-1,.cls-2{fill:#fff;}</style></defs><title>MBC </title><g id="Layer_2" data-name="Layer 2"><g id="Layer_1-2" data-name="Layer 1"><g id="Text"><text class="cls-1" transform="translate(0 184.16) scale(1.01 1)">banking club</text><path class="cls-2" d="M91,65.61c6.86,0,12.88,5.35,12.88,15.56v41.62H127V78.49C127,54.9,115.43,43,96.86,43,91.34,43,81,44.73,73.44,56.92c-4.35-9-12.74-13.72-25.09-13.72A22.29,22.29,0,0,0,28,56.08V44.69H4.68v78.15H27.93V81.48c0-11.89,6.53-15.89,13.6-15.89,6.69,0,12.74,5.19,12.88,15.06v42.16H77.67V81.48c0-11.35,6-15.87,13.34-15.87"/><path class="cls-2" d="M153,75.16c2-9.87,10.87-13.38,17.4-13.38s15.22,3.84,16.39,13.38H153m36,20.25c-3.85,5-10.71,7.36-17.07,7.36-8.2,0-18.07-4-19.24-13h57.22c.17-2,.34-5.18.34-7.19,0-24.64-17.74-41.16-40-41.16-22.41,0-40.82,15.9-40.82,40.49s18.4,41,40.82,41c13.22,0,27.78-4.17,35.68-15.89L189,95.41"/><path class="cls-2" d="M210.51,75.15c2-9.87,10.88-13.39,17.4-13.39s15.22,3.85,16.39,13.39H210.51m17.24-33.79c-11.39,0-21.75,4.1-29.18,11.37,7.2,7.22,11.64,17.5,11.64,29.8,0,2-.17,5.18-.34,7.19H187.59a43.05,43.05,0,0,0,1.39,5.7L205.82,107a30.56,30.56,0,0,1-5.36,6,41.27,41.27,0,0,0,27.25,9.84c13.22,0,27.78-4.18,35.68-15.89L246.5,95.4c-3.85,5-10.71,7.37-17.07,7.37-8.2,0-18.07-4-19.24-13h57.22c.17-2,.34-5.18.34-7.19,0-24.64-17.73-41.16-40-41.16"/><path class="cls-2" d="M189,95.44A38.54,38.54,0,0,0,200.5,113a30.83,30.83,0,0,0,5.35-6L189,95.45m9.59-42.69c-7.18,7-11.64,17-11.64,29.13a46.09,46.09,0,0,0,.67,7.86h22.28c.17-2,.34-5.18.34-7.19,0-12.3-4.43-22.57-11.64-29.8"/><path class="cls-2" d="M353.61,121.18V.55H330.53v52c-3.85-7.19-13.22-11.21-22.94-11.21-20.07,0-37.81,15.89-37.81,41,0,24.63,17.74,40.48,37.81,40.48,9.7,0,19.07-4.18,22.94-11.37v9.7ZM330,81.86c0,11.22-8.37,18.91-18.07,18.91-9.87,0-18.07-7.36-18.07-18.91,0-11.21,8.2-18.57,18.07-18.57,9.57,0,18.07,6.86,18.07,18.57"/><polygon class="cls-2" points="368.69 10.08 371 10.08 371.74 3.93 374.1 8.95 375.76 8.95 378.12 3.93 378.81 10.08 381.13 10.08 379.92 0 377.92 0 374.93 6.26 371.86 0 361.11 0 361.11 2.08 364.38 2.08 364.38 10.08 366.71 10.08 366.71 2.08 369.7 2.08 368.69 10.08"/></g></g></g></svg>