<svg xmlns="http://www.w3.org/2000/svg" viewBox="0 0 116 37.69"><defs><style>.cls-1{fill:#fff;}</style></defs><title>Asset 1</title><g id="Layer_2" data-name="Layer 2"><g id="Layer_1-2" data-name="Layer 1"><path class="cls-1" d="M26.6,19.54c2.11,0,4,1.65,4,4.79V37.17h7.12V23.51c0-7.27-3.56-10.93-9.28-10.93a8.24,8.24,0,0,0-7.22,4.28c-1.34-2.78-3.92-4.23-7.73-4.23a6.89,6.89,0,0,0-6.29,4V13.09H0V37.17H7.17V24.44c0-3.66,2-4.9,4.18-4.9s3.92,1.6,4,4.64v13h7.17V24.44c0-3.51,1.86-4.9,4.13-4.9"/><path class="cls-1" d="M45.7,23a5.27,5.27,0,0,1,5.36-4.12A4.88,4.88,0,0,1,56.11,23H45.7m11.08,6.24a6.66,6.66,0,0,1-5.26,2.27c-2.53,0-5.57-1.24-5.93-4H63.23c.05-.62.1-1.6.1-2.22,0-7.58-5.46-12.68-12.32-12.68s-12.58,4.9-12.58,12.48A12.26,12.26,0,0,0,51,37.68c4.07,0,8.56-1.29,11-4.9l-5.21-3.56"/><path class="cls-1" d="M63.43,23a5.27,5.27,0,0,1,5.36-4.12A4.88,4.88,0,0,1,73.84,23H63.43m5.31-10.41a12.74,12.74,0,0,0-9,3.5,12.74,12.74,0,0,1,3.58,9.18c0,.62-.05,1.6-.1,2.22H56.36a13.06,13.06,0,0,0,.43,1.76L62,32.79a9.48,9.48,0,0,1-1.65,1.87,12.73,12.73,0,0,0,8.4,3c4.07,0,8.56-1.29,11-4.9l-5.21-3.56a6.66,6.66,0,0,1-5.26,2.27c-2.53,0-5.57-1.24-5.93-4H81c.05-.62.1-1.6.1-2.22,0-7.58-5.47-12.68-12.32-12.68"/><path class="cls-1" d="M56.79,29.23a11.92,11.92,0,0,0,3.55,5.42A9.51,9.51,0,0,0,62,32.79l-5.2-3.55m3-13.15a12.27,12.27,0,0,0-3.59,9,14.34,14.34,0,0,0,.2,2.42h6.87c.05-.62.1-1.6.1-2.22a12.74,12.74,0,0,0-3.58-9.18"/><path class="cls-1" d="M107.47,37.17V0h-7.11V16c-1.19-2.22-4.07-3.45-7.06-3.45-6.19,0-11.65,4.9-11.65,12.63,0,7.58,5.46,12.48,11.65,12.48,3,0,5.88-1.29,7.06-3.51v3ZM100.2,25.05a5.61,5.61,0,0,1-5.57,5.83,5.52,5.52,0,0,1-5.57-5.83,5.57,5.57,0,1,1,11.14,0"/><polygon class="cls-1" points="112.17 3.35 112.88 3.35 113.11 1.46 113.83 3 114.34 3 115.07 1.46 115.28 3.35 116 3.35 115.62 0.25 115.01 0.25 114.09 2.17 113.14 0.25 109.83 0.25 109.83 0.89 110.84 0.89 110.84 3.35 111.55 3.35 111.55 0.89 112.47 0.89 112.17 3.35"/></g></g></svg>